<?xml version="1.0" standalone="no"?>
<!DOCTYPE svg PUBLIC "-//W3C//DTD SVG 20010904//EN"
 "http://www.w3.org/TR/2001/REC-SVG-20010904/DTD/svg10.dtd">
<svg version="1.0" xmlns="http://www.w3.org/2000/svg"
 width="1197.000000pt" height="455.000000pt" viewBox="0 0 1197.000000 455.000000"
 preserveAspectRatio="xMidYMid meet">
<metadata>
Created by potrace 1.16, written by Peter Selinger 2001-2019
</metadata>
<g transform="translate(0.000000,455.000000) scale(0.100000,-0.100000)"
fill="#000000" stroke="none">
<path d="M6315 4211 c-97 -46 -154 -120 -181 -237 -13 -57 -14 -79 -4 -129 36
-184 174 -295 350 -283 283 21 400 399 185 597 -68 62 -115 81 -210 81 -68 0
-89 -4 -140 -29z"/>
<path d="M5815 4080 c-152 -54 -247 -113 -368 -229 -102 -97 -178 -199 -244
-330 -66 -130 -81 -175 -63 -196 21 -25 59 -19 72 13 40 98 114 237 157 297
111 152 286 296 418 344 152 55 143 51 143 81 0 44 -33 50 -115 20z"/>
<path d="M5726 3643 c-136 -70 -274 -292 -343 -551 -27 -101 -23 -142 14 -142
32 0 40 14 66 111 29 107 88 252 139 336 50 84 99 134 167 172 51 29 61 39 61
62 0 46 -33 50 -104 12z"/>
<path d="M6057 3449 c-96 -23 -207 -105 -267 -198 -34 -53 -37 -73 -15 -91 23
-19 58 -4 79 32 47 83 177 178 244 178 30 0 63 35 55 57 -12 34 -29 38 -96 22z"/>
<path d="M2680 3309 c-19 -6 -41 -15 -47 -21 -10 -8 -13 -315 -13 -1474 l0
-1464 27 -17 c20 -14 52 -19 128 -21 124 -4 182 9 195 44 6 15 10 296 10 703
l0 677 52 60 c67 75 168 170 224 210 155 111 343 124 486 33 56 -36 89 -78
129 -162 57 -122 59 -155 59 -868 0 -628 1 -650 19 -668 25 -25 86 -34 198
-30 64 3 97 9 116 22 l27 17 0 644 c0 664 -5 786 -41 923 -62 244 -218 407
-449 469 -92 25 -283 25 -370 0 -134 -38 -263 -115 -389 -232 l-61 -56 0 570
c0 337 -4 581 -10 596 -5 14 -19 30 -32 37 -30 16 -213 22 -258 8z"/>
<path d="M484 3100 c-44 -14 -81 -52 -93 -96 -8 -27 -11 -443 -11 -1341 0
-1271 0 -1303 19 -1322 37 -37 271 -43 325 -8 l26 17 2 513 3 512 260 6 c340
8 451 30 635 125 201 103 337 270 406 499 25 83 27 104 28 270 1 210 -8 258
-81 405 -81 166 -241 300 -433 364 -155 51 -225 58 -655 62 -239 2 -412 0
-431 -6z m849 -324 c187 -52 304 -170 352 -352 20 -77 20 -252 0 -329 -53
-204 -188 -338 -395 -391 -51 -14 -115 -17 -300 -18 l-235 -1 -3 559 -2 558
262 -5 c202 -3 276 -8 321 -21z"/>
<path d="M6382 2399 c-278 -43 -478 -202 -536 -425 -20 -78 -21 -212 -1 -287
54 -207 204 -331 571 -471 200 -76 303 -141 351 -224 24 -41 28 -57 28 -127
-1 -69 -4 -87 -30 -134 -51 -92 -143 -143 -291 -161 -183 -22 -343 21 -574
154 -25 14 -52 26 -61 26 -32 0 -51 -37 -57 -109 -10 -149 17 -203 130 -258
234 -114 563 -135 812 -52 263 87 406 267 423 529 11 175 -38 302 -156 412
-81 75 -184 131 -401 218 -192 77 -252 107 -317 158 -124 98 -140 267 -36 382
68 76 125 94 293 95 156 0 209 -14 369 -96 75 -39 97 -46 113 -38 30 16 40 57
36 151 -4 106 -18 129 -110 175 -139 71 -390 108 -556 82z"/>
<path d="M9313 2400 c-296 -30 -533 -190 -662 -448 -91 -182 -125 -353 -125
-632 0 -216 13 -318 55 -457 51 -165 165 -339 279 -425 210 -157 538 -201 825
-111 157 49 299 134 339 203 18 30 21 52 21 147 0 102 -2 114 -22 134 -29 30
-51 22 -157 -56 -158 -117 -285 -165 -436 -165 -312 0 -487 193 -530 585 -37
338 32 645 180 795 186 190 490 184 765 -15 103 -74 118 -81 149 -67 30 14 46
64 46 147 0 92 -16 134 -68 185 -134 129 -410 204 -659 180z"/>
<path d="M10965 2400 c-201 -32 -377 -136 -467 -275 -116 -178 -110 -443 13
-607 84 -113 223 -198 493 -302 175 -68 248 -110 310 -177 44 -48 57 -69 66
-113 12 -60 2 -144 -24 -193 -80 -153 -351 -213 -606 -134 -36 11 -105 41
-155 67 -49 26 -107 56 -127 66 -73 38 -98 4 -98 -133 0 -144 31 -183 196
-245 147 -55 226 -68 414 -68 156 1 186 4 271 26 240 65 391 195 455 393 36
112 39 269 5 368 -61 179 -191 281 -536 418 -248 98 -351 163 -394 248 -28 54
-34 127 -17 184 43 143 155 206 361 207 115 0 208 -25 341 -91 121 -60 143
-61 162 -4 17 49 11 168 -9 210 -20 41 -135 100 -256 131 -111 28 -297 39
-398 24z"/>
<path d="M4955 2186 c-37 -17 -80 -61 -96 -101 -17 -40 -15 -1546 1 -1616 31
-130 205 -179 292 -82 49 54 48 36 43 893 -5 860 -3 827 -57 877 -46 43 -124
55 -183 29z"/>
<path d="M7795 2186 c-39 -18 -70 -48 -92 -89 -17 -30 -18 -84 -16 -830 3
-879 0 -837 65 -892 84 -71 207 -50 262 45 24 39 23 13 15 1120 -4 508 -5 547
-22 575 -42 69 -144 103 -212 71z"/>
</g>
</svg>
